<svg xmlns="http://www.w3.org/2000/svg" viewBox="0 0 800 600" fill-rule="evenodd" clip-rule="evenodd" stroke-linejoin="round" stroke-miterlimit="1.414">
  <path d="M52.698 335.677l122.773-71.193 122.75 71.035-122.733 71.408-122.79-71.25z" fill="#ebecf0" fill-opacity=".404"/>
  <path d="M52.698 313.493l122.773-71.194 122.75 71.036-122.733 71.407-122.79-71.249z" fill="#d3d5de" fill-opacity=".596"/>
  <path d="M52.698 285.894l122.773-71.193 122.75 71.035-122.733 71.408-122.79-71.25z" fill="#fa0000"/>
  <path d="M139.893 244.536l32.29-18.925 107.468 62.392-33.056 19.025-106.702-62.492z" fill="#ffb2b2"/>
  <path d="M139.097 244.164l-35.71 20.807 107.901 62.477 36.065-20.897-108.256-62.387z" fill="#ff7c7c"/>
  <path d="M175.496 223.383l-.014 4.192L279.68 287.97l4.188-2.54-108.372-62.047z" fill="#940000"/>
  <path d="M103.312 264.97l3.74 2.099 68.534-39.524-.03-4.155-72.244 41.58zM298.183 285.707l-.008 8.927-123.004 70.55-.14-8.518 123.152-70.96z" fill="#940000"/>
  <path d="M53 285.985l.095 8.337 122.132 70.61-.132-8.07-122.094-70.877z" fill="#560000"/>
  <path d="M212.67 250.225l21.641-12.804 36.122 21.656-22.144 12.6-35.618-21.452z" fill="#02c1ff"/>
  <path d="M175.462 281.63l22.907-13.765 38.237 23.281-23.44 13.546-37.704-23.062z" fill="#00d0a9"/>
  <path d="M233.003 234.265l.204 5.939 31.718 18.168 4.724-3.019-36.646-21.088z" fill="#003241"/>
  <g>
    <path d="M196.471 268.767l.204 5.94 31.718 18.168 4.725-3.02-36.647-21.088z"/>
  </g>
  <g>
    <path d="M178.42 283.79l5.105 2.66 16.642-9.804-.196-5.718-21.551 12.861z" fill="#00372d"/>
  </g>
  <g>
    <path d="M193.27 291.773l4.394 2.675 16.997-9.615.326-5.455-21.717 12.395z" fill="#00372d"/>
  </g>
  <g>
    <path d="M211.513 247.301l5.104 2.661 16.643-9.804-.196-5.718-21.551 12.861z" fill="#00546f"/>
  </g>
  <g>
    <path d="M229.801 257.27l4.395 2.675 16.997-9.615.325-5.455-21.717 12.395z" fill="#00546f"/>
  </g>
  <g>
    <path d="M175.612 193.072l-36.08 20.81 108.272 62.491 35.952-20.902-108.144-62.4zm93.796 62.232l-21.892 12.652-17.66-10.646 21.627-12.429 17.925 10.423zm-25.133-14.352l-21.362 12.273-11.455-5.954 21.628-12.505 11.189 6.186zm-17.946-10.766l-21.817 12.879-21.745-12.689 21.627-12.505 21.935 12.315z" fill="#009ccd"/>
    <path d="M183.132 205.418l-21.892 12.651-7.066-4.288 21.628-12.505 7.33 4.142zM197.428 213.715l-21.892 12.652-7.066-4.288 21.627-12.505 7.33 4.141z" fill="#007ca3"/>
    <path d="M283.738 255.466l-.012 4.158-36.02 20.863-.002-4.159 36.034-20.862z" fill="#0083c3"/>
    <path d="M139.572 213.868l.044 4.144 108.105 62.479-.005-4.169-108.144-62.454z" fill="#004c70"/>
  </g>
  <g>
    <path d="M139.156 227.976l-36.08 20.807 108.272 62.477 36.066-20.896-108.258-62.388zm93.914 62.204l-21.892 12.651-17.66-10.645 21.627-12.43 17.925 10.424zm-24.568-15.334l-21.892 12.651-7.066-4.288 21.627-12.505 7.33 4.142z" fill="#00ac8c"/>
    <path d="M146.794 240.293l-21.892 12.652-7.066-4.289 21.627-12.505 7.33 4.142zM194.465 266.305l-21.817 12.879-21.746-12.689 21.627-12.505 21.936 12.315zM164.897 249.925l-21.363 12.273-11.454-5.953 21.627-12.506 11.19 6.186z" fill="#007e66"/>
    <path d="M247.416 290.4l-.012 4.157-36.02 20.863-.001-4.16 36.033-20.86z" fill="#00d7af"/>
    <path d="M103.25 248.8l.044 4.145L211.4 315.423l-.005-4.168L103.25 248.8z" fill="#005948"/>
  </g>
  <g>
    <path d="M103.395 264.976l-36.08 20.807 108.272 62.477 36.065-20.897-108.257-62.387z" fill="#ffb102"/>
    <path d="M140.708 294.31l-21.892 12.652-7.066-4.288 21.628-12.506 7.33 4.142z" fill="#be8300"/>
    <path d="M172.055 310.429l-21.892 12.652-7.179-4.189 21.74-12.605 7.331 4.142z" fill="#ffc646"/>
    <path d="M142.974 321.204l7.34 4.163-.122-2.3-7.23-4.147.012 2.284z" fill="#463100"/>
    <path d="M150.342 325.324l21.764-12.61-.045-2.272-21.808 12.54.089 2.342z" fill="#cd8e00"/>
    <path d="M208.44 267.634l-21.891 12.652-7.18-4.188 21.741-12.605 7.33 4.141z" fill="#00d5ad"/>
    <path d="M179.367 280.316l7.353 4.262-.143-4.305-7.23-4.148.02 4.191z" fill="#004337"/>
    <path d="M186.727 284.527l21.81-12.322-.09-4.558-21.867 12.659.147 4.221z" fill="#00ac8c"/>
    <path d="M124.905 284.803l-21.817 12.88-21.745-12.69 21.627-12.504 21.935 12.314zM157.81 304.473l-21.363 12.272-11.454-5.953 21.627-12.505 11.19 6.186z" fill="#be8300"/>
    <path d="M197.142 322.927l-21.619 12.378-18.115-10.372 21.628-12.399 18.106 10.393z" fill="#ffda88"/>
    <path d="M175.514 339.6l21.622-12.45-.053-4.263-21.657 12.39.088 4.323z" fill="#cd8e00"/>
    <path d="M157.407 324.89l-.084 4.274 18.18 10.413-.064-4.334-18.032-10.354z" fill="#463100"/>
    <g>
      <path d="M233.528 271.271l-21.62 12.378-18.114-10.372 21.627-12.399 18.107 10.393z" fill="#88ffe9"/>
      <path d="M211.9 287.944l8.468-4.876 13.154-7.574-.053-4.263-21.658 12.39.089 4.323z" fill="#00a384"/>
      <path d="M193.792 273.234l-.083 4.274 18.179 10.414-.063-4.335-18.033-10.353z" fill="#003c31"/>
    </g>
    <g>
      <path d="M226.339 226.33L204.72 238.71l-21.85-12.529 21.627-12.398 21.842 12.549z" fill="#00b9f3"/>
      <path d="M204.697 242.996l21.622-12.45-.053-4.263-21.657 12.39.088 4.323z" fill="#00546f"/>
      <path d="M182.868 226.137l-.083 4.274 21.914 12.558-.063-4.334-21.768-12.498z" fill="#002632"/>
    </g>
    <g>
      <path d="M244.107 221.791l-21.818 12.64-10.698-6.559 21.74-12.605 10.776 6.524z" fill="#4dd4ff"/>
      <path d="M211.588 232.09l10.825 6.584-.143-4.304-10.702-6.47.02 4.19z" fill="#002632"/>
      <path d="M222.364 238.579l21.81-12.323-.09-4.557-21.867 12.658.147 4.222z" fill="#00546f"/>
    </g>
    <g>
      <path d="M269.329 224.98L247.71 237.36l-18.115-10.373 21.627-12.398 18.107 10.393z" fill="#90e5ff"/>
      <path d="M247.7 241.654l21.623-12.45-.053-4.263-21.657 12.39.088 4.323z" fill="#00546f"/>
      <path d="M229.593 226.943l-.083 4.274 18.18 10.414-.064-4.334-18.033-10.354z" fill="#002632"/>
    </g>
  </g>
  <g>
    <path d="M384.14 290.94a6.676 6.676 0 0 0 .962 2.926 8.3 8.3 0 0 0 2.08 2.273 10.05 10.05 0 0 0 2.85 1.502c1.053.36 2.144.54 3.274.54 2.003 0 3.698-.373 5.085-1.117 1.386-.745 2.516-1.708 3.39-2.889l8.782 5.546c-1.798 2.62-4.173 4.636-7.126 6.048-2.953 1.412-6.382 2.12-10.285 2.12-2.876 0-5.598-.45-8.166-1.35-2.568-.898-4.815-2.208-6.74-3.929-1.927-1.72-3.442-3.839-4.546-6.355-1.104-2.517-1.657-5.393-1.657-8.629 0-3.133.54-5.97 1.618-8.513 1.08-2.542 2.543-4.699 4.391-6.47 1.85-1.773 4.032-3.147 6.55-4.122 2.515-.976 5.237-1.464 8.165-1.464 2.825 0 5.418.475 7.781 1.425 2.362.95 4.391 2.324 6.086 4.122 1.695 1.797 3.017 3.98 3.967 6.548.951 2.568 1.426 5.495 1.426 8.782v1.541c0 .514-.026 1.002-.077 1.464h-27.81zm76.421 15.715h-11.633v-5.008h-.154c-1.232 1.952-2.991 3.454-5.277 4.507-2.285 1.053-4.712 1.58-7.28 1.58-2.876 0-5.444-.566-7.704-1.695-2.26-1.13-4.173-2.633-5.739-4.507-1.567-1.875-2.76-4.045-3.583-6.51a24.219 24.219 0 0 1-1.232-7.704c0-2.67.423-5.226 1.271-7.665.847-2.44 2.054-4.584 3.621-6.433a17.129 17.129 0 0 1 5.701-4.39c2.234-1.08 4.737-1.619 7.511-1.619 2.825 0 5.213.54 7.165 1.618 1.951 1.078 3.466 2.26 4.545 3.544h.154v-23.96h12.634v58.242zm50.692 0H499.62v-5.008h-.154c-1.233 1.952-2.992 3.454-5.277 4.507-2.286 1.053-4.712 1.58-7.28 1.58-2.876 0-5.444-.566-7.704-1.695-2.26-1.13-4.173-2.633-5.74-4.507-1.566-1.875-2.76-4.045-3.582-6.51a24.192 24.192 0 0 1-1.233-7.704c0-2.67.424-5.226 1.272-7.665.847-2.44 2.054-4.584 3.62-6.433a17.149 17.149 0 0 1 5.7-4.39c2.235-1.08 4.739-1.619 7.513-1.619 2.824 0 5.213.54 7.164 1.618 1.952 1.078 3.467 2.26 4.546 3.544h.154v-23.96h12.634v58.242zm46.532-38.366h9.013v9.476h-9.013v14.638c0 1.797.346 3.145 1.04 4.044.693.9 1.938 1.348 3.736 1.348.616 0 1.27-.05 1.965-.154.693-.102 1.27-.256 1.733-.462l.154 9.245c-.873.308-1.977.578-3.313.81-1.335.23-2.67.345-4.006.345-2.568 0-4.725-.32-6.471-.963-1.746-.642-3.146-1.566-4.2-2.773-1.052-1.207-1.81-2.645-2.271-4.314-.463-1.669-.694-3.53-.694-5.586v-16.178h-6.163v-9.476h6.086v-10.092h12.404v10.092zm-220.332 38.366H324.51v-54.544h20.801c2.62 0 5.174.27 7.665.81 2.491.538 4.725 1.45 6.703 2.734 1.977 1.284 3.556 2.98 4.738 5.085 1.181 2.105 1.771 4.725 1.771 7.858 0 3.697-1 6.805-3.004 9.321-2.003 2.517-4.776 4.315-8.32 5.393l14.252 23.343h-15.408l-11.787-21.648h-4.468v21.648zm196.604 0h-12.635V268.29h12.635v38.366zm-85.591-19.26c0-1.233-.218-2.439-.655-3.62a10.215 10.215 0 0 0-1.849-3.159 9.18 9.18 0 0 0-2.889-2.234c-1.129-.565-2.413-.848-3.852-.848-1.489 0-2.799.283-3.929.848-1.129.565-2.08 1.296-2.85 2.195a9.054 9.054 0 0 0-1.733 3.12 11.588 11.588 0 0 0-.578 3.621c0 1.233.192 2.452.578 3.66a9.414 9.414 0 0 0 1.733 3.197 8.766 8.766 0 0 0 2.85 2.234c1.13.565 2.44.847 3.929.847 1.439 0 2.723-.282 3.852-.847a9.195 9.195 0 0 0 2.889-2.234 10.232 10.232 0 0 0 1.849-3.159c.437-1.18.655-2.388.655-3.62zm50.692 0c0-1.233-.218-2.439-.655-3.62a10.235 10.235 0 0 0-1.85-3.159 9.18 9.18 0 0 0-2.888-2.234c-1.13-.565-2.414-.848-3.852-.848-1.49 0-2.8.283-3.93.848-1.13.565-2.08 1.296-2.85 2.195a9.057 9.057 0 0 0-1.733 3.12 11.616 11.616 0 0 0-.577 3.621c0 1.233.192 2.452.577 3.66a9.416 9.416 0 0 0 1.734 3.197 8.755 8.755 0 0 0 2.85 2.234c1.13.565 2.44.847 3.929.847 1.438 0 2.722-.282 3.852-.847a9.195 9.195 0 0 0 2.889-2.234 10.251 10.251 0 0 0 1.849-3.159c.437-1.18.655-2.388.655-3.62zm-98.764-4.314c0-2.003-.629-3.724-1.888-5.162-1.258-1.438-3.145-2.157-5.662-2.157-1.233 0-2.363.193-3.39.578a8.785 8.785 0 0 0-2.696 1.58 7.8 7.8 0 0 0-1.849 2.35 6.877 6.877 0 0 0-.77 2.811h16.255zm-56.008-20.338h-7.01v12.711h6.24c1.08 0 2.183-.09 3.313-.27 1.13-.179 2.157-.5 3.081-.963a5.873 5.873 0 0 0 2.273-2.003c.591-.873.886-2.003.886-3.389 0-1.284-.27-2.324-.809-3.12a5.539 5.539 0 0 0-2.08-1.849c-.848-.437-1.798-.732-2.85-.886a21.021 21.021 0 0 0-3.044-.23zm190.595-6.703c0 .976-.193 1.888-.578 2.735a7.056 7.056 0 0 1-1.541 2.196 7.095 7.095 0 0 1-2.311 1.463 7.49 7.49 0 0 1-2.812.54c-2.054 0-3.775-.68-5.161-2.042-1.387-1.36-2.08-2.99-2.08-4.892 0-.924.179-1.81.539-2.658a6.29 6.29 0 0 1 1.54-2.195 8.336 8.336 0 0 1 2.312-1.503c.873-.385 1.823-.577 2.85-.577a7.49 7.49 0 0 1 2.812.54 7.081 7.081 0 0 1 2.31 1.463 7.052 7.052 0 0 1 1.542 2.195c.385.848.578 1.76.578 2.735z" fill="#002237" fill-rule="nonzero"/>
    <path d="M703.08 278.844c-.874-1.387-2.145-2.53-3.814-3.428-1.669-.899-3.48-1.349-5.43-1.349-2.107 0-4.007.373-5.702 1.117-1.695.745-3.146 1.772-4.353 3.082-1.207 1.31-2.13 2.85-2.773 4.622-.642 1.772-.963 3.685-.963 5.74 0 2.054.321 3.954.963 5.701.642 1.746 1.553 3.274 2.734 4.583 1.182 1.31 2.62 2.337 4.315 3.082 1.695.745 3.595 1.117 5.701 1.117 2.311 0 4.262-.436 5.855-1.31 1.592-.873 2.901-2.003 3.93-3.389l3.928 2.927a17.174 17.174 0 0 1-5.663 4.545c-2.234 1.13-4.918 1.695-8.05 1.695-2.928 0-5.573-.475-7.935-1.425-2.363-.95-4.379-2.273-6.048-3.967-1.668-1.695-2.965-3.698-3.89-6.009-.924-2.312-1.386-4.828-1.386-7.55 0-2.722.462-5.239 1.386-7.55.925-2.31 2.222-4.314 3.89-6.009 1.67-1.695 3.685-3.017 6.048-3.968 2.362-.95 5.007-1.425 7.935-1.425 2.413 0 4.866.527 7.357 1.58 2.491 1.052 4.507 2.606 6.047 4.66l-4.083 2.928zm-67.178 11.17a14.077 14.077 0 0 0 1.079 5.085 12.83 12.83 0 0 0 2.773 4.16 13.364 13.364 0 0 0 4.16 2.812c1.592.693 3.313 1.04 5.162 1.04 2.722 0 5.072-.629 7.049-1.887 1.977-1.259 3.48-2.71 4.507-4.353l3.929 3.081c-2.157 2.723-4.533 4.674-7.126 5.855-2.594 1.182-5.38 1.772-8.36 1.772-2.67 0-5.148-.475-7.433-1.425-2.286-.95-4.25-2.273-5.894-3.967-1.643-1.695-2.94-3.698-3.89-6.009-.95-2.312-1.426-4.828-1.426-7.55 0-2.722.463-5.239 1.387-7.55.925-2.31 2.209-4.314 3.852-6.009a17.735 17.735 0 0 1 5.778-3.968c2.208-.95 4.597-1.425 7.165-1.425 2.824 0 5.315.475 7.472 1.425 2.158.951 3.955 2.234 5.393 3.852 1.438 1.618 2.53 3.506 3.274 5.663.745 2.157 1.117 4.468 1.117 6.933v1.156c0 .411-.025.847-.077 1.31h-29.891zm-42.756 16.641H575.04v-54.544h18.105c3.389 0 6.792.565 10.207 1.695a28.164 28.164 0 0 1 9.245 5.123c2.748 2.286 4.969 5.136 6.664 8.552 1.695 3.415 2.542 7.382 2.542 11.902 0 4.571-.847 8.551-2.542 11.941-1.695 3.39-3.916 6.227-6.664 8.513a28.164 28.164 0 0 1-9.245 5.123c-3.415 1.13-6.818 1.695-10.207 1.695zm127.883 0h-5.238v-58.242h5.238v38.443h.232l16.64-16.255h7.55l-18.18 16.486 20.03 19.568h-7.705l-18.335-18.952h-.232v18.952zm-129.424-49.613h-11.017v44.682h11.017c4.109 0 7.69-.642 10.747-1.926 3.056-1.284 5.585-2.966 7.588-5.046a20.613 20.613 0 0 0 4.507-7.126 23.3 23.3 0 0 0 1.502-8.243c0-2.825-.501-5.572-1.502-8.243a20.613 20.613 0 0 0-4.507-7.126c-2.003-2.08-4.532-3.762-7.588-5.046-3.056-1.284-6.638-1.926-10.747-1.926zm68.95 28.812c-.154-3.389-1.246-6.2-3.274-8.435-2.03-2.235-4.918-3.352-8.667-3.352-1.747 0-3.364.321-4.854.963a12.83 12.83 0 0 0-3.93 2.62 13.016 13.016 0 0 0-2.695 3.775 12.17 12.17 0 0 0-1.156 4.43h24.576z" fill="#0099fd" fill-rule="nonzero"/>
  </g>
</svg>
