<?xml version="1.0" encoding="UTF-8" standalone="no"?>
<!DOCTYPE svg PUBLIC "-//W3C//DTD SVG 1.1//EN" "http://www.w3.org/Graphics/SVG/1.1/DTD/svg11.dtd">
<svg width="100%" height="100%" viewBox="0 0 800 600" version="1.1" xmlns="http://www.w3.org/2000/svg" xmlns:xlink="http://www.w3.org/1999/xlink" xml:space="preserve" xmlns:serif="http://www.serif.com/" style="fill-rule:evenodd;clip-rule:evenodd;stroke-linejoin:round;stroke-miterlimit:1.41421;">
    <g transform="matrix(1.20195,0,0,1.20195,-43.9725,-6.31176)">
        <g id="Layer1">
            <g>
                <g transform="matrix(0.692907,0,0,0.692907,18.5306,38.3391)">
                    <g transform="matrix(1,0,0,1,-152.975,-9.48683)">
                        <g transform="matrix(1,0,0,1,0,59.7754)">
                            <path d="M242.305,305.011L389.72,219.528L537.107,304.821L389.74,390.561L242.305,305.011Z" style="fill:rgb(235,236,240);fill-opacity:0.403922;"/>
                        </g>
                        <g transform="matrix(1,0,0,1,0,33.1383)">
                            <path d="M242.305,305.011L389.72,219.528L537.107,304.821L389.74,390.561L242.305,305.011Z" style="fill:rgb(211,213,222);fill-opacity:0.596078;"/>
                        </g>
                        <path d="M242.305,305.011L389.72,219.528L537.107,304.821L389.74,390.561L242.305,305.011Z" style="fill:rgb(250,0,0);"/>
                        <g transform="matrix(1,0,0,1,-2.33621,5.48322)">
                            <path d="M349.337,249.868L388.109,227.145L517.146,302.06L477.456,324.903L349.337,249.868Z" style="fill:rgb(255,178,178);"/>
                        </g>
                        <g transform="matrix(-1,0,0,0.999792,908.824,-179.815)">
                            <path d="M562.779,434.811L605.655,459.799L476.098,534.831L432.794,509.735L562.779,434.811Z" style="fill:rgb(255,124,124);"/>
                        </g>
                        <g transform="matrix(1,0,0,1,3.92175,-2.6145)">
                            <path d="M385.828,232.568L385.811,237.601L510.923,310.118L515.952,307.068L385.828,232.568Z" style="fill:rgb(148,0,0);"/>
                        </g>
                        <path d="M303.078,279.888L307.569,282.407L389.858,234.951L389.823,229.962L303.078,279.888Z" style="fill:rgb(148,0,0);"/>
                        <g transform="matrix(1,0,0,1,142.963,154.684)">
                            <path d="M394.099,150.102L394.089,160.821L246.397,245.532L246.229,235.304L394.099,150.102Z" style="fill:rgb(148,0,0);"/>
                        </g>
                        <g transform="matrix(1,0,0,1,-1.29115,-1.08948)">
                            <path d="M243.96,306.209L244.073,316.22L390.718,401.001L390.56,391.312L243.96,306.209Z" style="fill:rgb(86,0,0);"/>
                        </g>
                    </g>
                    <g transform="matrix(1,0,0,1,-152.975,-9.48683)">
                        <path d="M434.386,262.183L460.37,246.809L503.742,272.811L477.153,287.94L434.386,262.183Z" style="fill:rgb(2,193,255);"/>
                    </g>
                    <g transform="matrix(1.05856,0,0,1.07505,-223.09,8.5447)">
                        <path d="M434.386,262.183L460.37,246.809L503.742,272.811L477.153,287.94L434.386,262.183Z" style="fill:rgb(0,208,169);"/>
                    </g>
                    <g transform="matrix(1,0,0,1,-152.975,-9.48683)">
                        <path d="M458.799,243.019L459.044,250.15L497.128,271.965L502.801,268.34L458.799,243.019Z" style="fill:rgb(0,50,65);"/>
                    </g>
                    <g transform="matrix(1,0,0,1,-196.839,31.9406)">
                        <path d="M458.799,243.019L459.044,250.15L497.128,271.965L502.801,268.34L458.799,243.019Z"/>
                    </g>
                    <g transform="matrix(1,0,0,1,-192.71,34.325)">
                        <path d="M432.996,258.672L439.125,261.867L459.108,250.095L458.873,243.229L432.996,258.672Z" style="fill:rgb(0,55,45);"/>
                    </g>
                    <g transform="matrix(1,0,0,1,-196.839,31.9406)">
                        <path d="M454.955,270.642L460.232,273.854L480.64,262.309L481.031,255.759L454.955,270.642Z" style="fill:rgb(0,55,45);"/>
                    </g>
                    <g transform="matrix(1,0,0,1,-152.975,-9.48683)">
                        <path d="M432.996,258.672L439.125,261.867L459.108,250.095L458.873,243.229L432.996,258.672Z" style="fill:rgb(0,84,111);"/>
                    </g>
                    <g transform="matrix(1,0,0,1,-152.975,-9.48683)">
                        <path d="M454.955,270.642L460.232,273.854L480.64,262.309L481.031,255.759L454.955,270.642Z" style="fill:rgb(0,84,111);"/>
                    </g>
                    <g transform="matrix(1,0,0,1,-151.987,-0.911697)">
                        <g transform="matrix(1,0,0,1,-0.988149,-8.57513)">
                            <path d="M389.889,193.558L346.568,218.546L476.571,293.579L519.739,268.482L389.889,193.558ZM502.512,268.281L476.225,283.472L455.021,270.69L480.989,255.766L502.512,268.281ZM472.334,251.048L446.684,265.785L432.93,258.636L458.899,243.621L472.334,251.048ZM450.786,238.122L424.59,253.585L398.48,238.35L424.448,223.335L450.786,238.122Z" style="fill:rgb(0,156,205);"/>
                        </g>
                        <g transform="matrix(-1,0,0,1,778.743,-39.985)">
                            <path d="M380.812,239.792L407.098,254.983L415.582,249.834L389.614,234.819L380.812,239.792Z" style="fill:rgb(0,124,163);"/>
                        </g>
                        <g transform="matrix(-1,0,0,1,795.908,-30.0219)">
                            <path d="M380.812,239.792L407.098,254.983L415.582,249.834L389.614,234.819L380.812,239.792Z" style="fill:rgb(0,124,163);"/>
                        </g>
                        <g transform="matrix(1,0,0,1,-0.795502,-20.0012)">
                            <path d="M519.525,279.902L519.51,284.894L476.261,309.945L476.259,304.951L519.525,279.902Z" style="fill:rgb(0,131,195);"/>
                        </g>
                        <g transform="matrix(1,0,0,1,-0.795502,-20.0012)">
                            <path d="M346.423,229.954L346.476,234.93L476.279,309.949L476.273,304.944L346.423,229.954Z" style="fill:rgb(0,76,112);"/>
                        </g>
                    </g>
                    <g transform="matrix(1,0,0,1,-152.746,-4.95723)">
                        <g transform="matrix(1,0,0,1,-1.52974,11.187)">
                            <path d="M347.417,219.752L304.096,244.735L434.099,319.752L477.403,294.661L347.417,219.752ZM460.18,294.44L433.894,309.631L412.69,296.849L438.658,281.925L460.18,294.44ZM430.681,276.029L404.395,291.219L395.911,286.07L421.879,271.055L430.681,276.029Z" style="fill:rgb(0,172,140);"/>
                        </g>
                        <g transform="matrix(-1,0,0,1,735.87,5.93567)">
                            <path d="M380.812,239.792L407.098,254.983L415.582,249.834L389.614,234.819L380.812,239.792Z" style="fill:rgb(0,126,102);"/>
                        </g>
                        <g transform="matrix(-1,0,0,1,775.573,27.3549)">
                            <path d="M363.276,249.605L389.472,265.069L415.582,249.834L389.614,234.819L363.276,249.605Z" style="fill:rgb(0,126,102);"/>
                        </g>
                        <g transform="matrix(-1,0,0,1,752.973,15.0468)">
                            <path d="M376.178,242.246L401.829,256.982L415.582,249.834L389.614,234.819L376.178,242.246Z" style="fill:rgb(0,126,102);"/>
                        </g>
                        <g transform="matrix(1,0,0,1,-43.6482,25.9885)">
                            <path d="M519.525,279.902L519.51,284.894L476.261,309.945L476.259,304.951L519.525,279.902Z" style="fill:rgb(0,215,175);"/>
                        </g>
                        <g transform="matrix(1,0,0,1,-43.6482,25.9885)">
                            <path d="M346.423,229.954L346.476,234.93L476.279,309.949L476.273,304.944L346.423,229.954Z" style="fill:rgb(0,89,72);"/>
                        </g>
                    </g>
                    <g transform="matrix(1,0,0,1,-152.975,-4.65652)">
                        <g transform="matrix(-1,0,0,0.999792,865.957,-159.656)">
                            <path d="M562.779,434.811L606.1,459.799L476.098,534.831L432.794,509.735L562.779,434.811Z" style="fill:rgb(255,177,2);"/>
                        </g>
                        <g transform="matrix(-1,0,0,1,728.792,70.4939)">
                            <path d="M380.812,239.792L407.098,254.983L415.582,249.834L389.614,234.819L380.812,239.792Z" style="fill:rgb(190,131,0);"/>
                        </g>
                        <g>
                            <g transform="matrix(-1,0,0,1,766.431,89.8479)">
                                <path d="M380.812,239.792L407.098,254.983L415.718,249.954L389.614,234.819L380.812,239.792Z" style="fill:rgb(255,198,70);"/>
                            </g>
                            <g transform="matrix(1,0,0,1,0,-4.8303)">
                                <path d="M350.701,347.408L359.513,352.407L359.367,349.646L350.685,344.665L350.701,347.408Z" style="fill:rgb(70,49,0);"/>
                            </g>
                            <g transform="matrix(1,0,0,1,-30.2249,-15.0795)">
                                <path d="M389.772,362.604L415.905,347.462L415.851,344.735L389.666,359.793L389.772,362.604Z" style="fill:rgb(205,142,0);"/>
                            </g>
                        </g>
                        <g transform="matrix(1,0,0,1,43.6884,-51.3838)">
                            <g transform="matrix(-1,0,0,1,766.431,89.8479)">
                                <path d="M380.812,239.792L407.098,254.983L415.718,249.954L389.614,234.819L380.812,239.792Z" style="fill:rgb(0,213,173);"/>
                            </g>
                            <g transform="matrix(1,0,0,1,0,-4.8303)">
                                <path d="M350.71,349.697L359.539,354.814L359.367,349.646L350.685,344.665L350.71,349.697Z" style="fill:rgb(0,67,55);"/>
                            </g>
                            <g transform="matrix(1,0,0,1,-30.2249,-15.0795)">
                                <path d="M389.772,365.003L415.959,350.207L415.851,344.735L389.595,359.934L389.772,365.003Z" style="fill:rgb(0,172,140);"/>
                            </g>
                        </g>
                        <g transform="matrix(-1,0,0,1,692.281,49.2657)">
                            <path d="M363.276,249.605L389.472,265.069L415.582,249.834L389.614,234.819L363.276,249.605Z" style="fill:rgb(190,131,0);"/>
                        </g>
                        <g transform="matrix(-1,0,0,1,744.692,80.242)">
                            <path d="M376.178,242.246L401.829,256.982L415.582,249.834L389.614,234.819L376.178,242.246Z" style="fill:rgb(190,131,0);"/>
                        </g>
                        <g transform="matrix(1,0,0,1,0,6.09933)">
                            <g transform="matrix(-1,0,0,1,797.356,98.2074)">
                                <path d="M381.615,240.34L407.573,255.202L429.324,242.748L403.356,227.861L381.615,240.34Z" style="fill:rgb(255,218,136);"/>
                            </g>
                            <g transform="matrix(1,0,0,1,0,-6.41752)">
                                <path d="M389.772,364.984L415.734,350.035L415.67,344.917L389.666,359.793L389.772,364.984Z" style="fill:rgb(205,142,0);"/>
                            </g>
                            <g transform="matrix(1,0,0,1,0,-6.41752)">
                                <path d="M368.03,347.321L367.93,352.453L389.758,364.957L389.682,359.753L368.03,347.321Z" style="fill:rgb(70,49,0);"/>
                            </g>
                        </g>
                        <g transform="matrix(1,0,0,1,43.6884,-55.9245)">
                            <g transform="matrix(-1,0,0,1,797.356,98.2074)">
                                <path d="M381.615,240.34L407.573,255.202L429.324,242.748L403.356,227.861L381.615,240.34Z" style="fill:rgb(136,255,233);"/>
                            </g>
                            <g transform="matrix(1,0,0,1,0,-6.41752)">
                                <path d="M389.772,364.984L399.94,359.129L415.734,350.035L415.67,344.917L389.666,359.793L389.772,364.984Z" style="fill:rgb(0,163,132);"/>
                            </g>
                            <g transform="matrix(1,0,0,1,0,-6.41752)">
                                <path d="M368.03,347.321L367.93,352.453L389.758,364.957L389.682,359.753L368.03,347.321Z" style="fill:rgb(0,60,49);"/>
                            </g>
                        </g>
                        <g transform="matrix(1,0,0,1,30.5717,-112.474)">
                            <g transform="matrix(-1,0,0,1,797.356,98.2074)">
                                <path d="M377.13,242.929L403.088,257.791L429.324,242.748L403.356,227.861L377.13,242.929Z" style="fill:rgb(0,185,243);"/>
                            </g>
                            <g transform="matrix(1,0,0,1,4.4684,-3.83769)">
                                <path d="M389.772,364.984L415.734,350.035L415.67,344.917L389.666,359.793L389.772,364.984Z" style="fill:rgb(0,84,111);"/>
                            </g>
                            <g transform="matrix(1,0,0,1,0,-6.41752)">
                                <path d="M368.03,347.321L367.93,352.453L394.243,367.532L394.167,362.328L368.03,347.321Z" style="fill:rgb(0,38,50);"/>
                            </g>
                        </g>
                        <g transform="matrix(1,0,0,1,82.3766,-109.289)">
                            <g transform="matrix(-1,0,0,1,766.431,89.8479)">
                                <path d="M376.676,242.653L402.873,257.829L415.718,249.954L389.614,234.819L376.676,242.653Z" style="fill:rgb(77,212,255);"/>
                            </g>
                            <g transform="matrix(1,0,0,1,0,-4.8303)">
                                <path d="M350.71,349.697L363.707,357.602L363.535,352.434L350.685,344.665L350.71,349.697Z" style="fill:rgb(0,38,50);"/>
                            </g>
                            <g transform="matrix(1,0,0,1,-26.1235,-12.3452)">
                                <path d="M389.772,365.003L415.959,350.207L415.851,344.735L389.595,359.934L389.772,365.003Z" style="fill:rgb(0,84,111);"/>
                            </g>
                        </g>
                        <g transform="matrix(1,0,0,1,86.6753,-111.506)">
                            <g transform="matrix(-1,0,0,1,797.356,98.2074)">
                                <path d="M381.615,240.34L407.573,255.202L429.324,242.748L403.356,227.861L381.615,240.34Z" style="fill:rgb(144,229,255);"/>
                            </g>
                            <g transform="matrix(1,0,0,1,0,-6.41752)">
                                <path d="M389.772,364.984L415.734,350.035L415.67,344.917L389.666,359.793L389.772,364.984Z" style="fill:rgb(0,84,111);"/>
                            </g>
                            <g transform="matrix(1,0,0,1,0,-6.41752)">
                                <path d="M368.03,347.321L367.93,352.453L389.758,364.957L389.682,359.753L368.03,347.321Z" style="fill:rgb(0,38,50);"/>
                            </g>
                        </g>
                    </g>
                </g>
                <g transform="matrix(0.83198,0,0,0.83198,36.5843,5.25126)">
                    <path d="M462.408,345.146C462.408,346.823 462.167,348.281 461.684,349.521C461.202,350.761 460.525,351.789 459.652,352.604C458.779,353.419 457.717,354.028 456.466,354.429C455.214,354.831 453.831,355.032 452.315,355.032C450.799,355.032 449.244,354.803 447.648,354.343C446.052,353.884 444.668,353.218 443.497,352.345L446.321,348.315C447.148,349.05 448.061,349.596 449.06,349.951C450.059,350.307 451.041,350.485 452.005,350.485C453.658,350.485 454.881,350.049 455.674,349.176C456.466,348.304 456.862,347.144 456.862,345.697L456.862,344.664L456.759,344.664C456.23,345.353 455.519,345.904 454.623,346.317C453.727,346.731 452.705,346.937 451.557,346.937C450.248,346.937 449.089,346.702 448.078,346.231C447.068,345.761 446.212,345.123 445.512,344.32C444.812,343.516 444.278,342.58 443.91,341.512C443.543,340.444 443.359,339.313 443.359,338.119C443.359,336.925 443.543,335.788 443.91,334.709C444.278,333.63 444.812,332.677 445.512,331.85C446.212,331.023 447.068,330.363 448.078,329.869C449.089,329.376 450.237,329.129 451.523,329.129C452.602,329.129 453.636,329.347 454.623,329.783C455.61,330.22 456.403,330.897 457,331.816L457.069,331.816L457.069,329.611L462.408,329.611L462.408,345.146ZM542.047,338.395C542.047,338.624 542.047,338.854 542.047,339.084C542.047,339.313 542.035,339.532 542.012,339.738L529.577,339.738C529.623,340.22 529.767,340.657 530.008,341.047C530.249,341.438 530.559,341.776 530.938,342.063C531.317,342.35 531.742,342.574 532.212,342.735C532.683,342.896 533.171,342.976 533.676,342.976C534.572,342.976 535.33,342.81 535.95,342.477C536.57,342.144 537.075,341.713 537.466,341.185L541.392,343.665C540.589,344.836 539.527,345.738 538.206,346.369C536.886,347.001 535.353,347.316 533.608,347.316C532.322,347.316 531.104,347.115 529.956,346.714C528.808,346.312 527.803,345.726 526.942,344.957C526.081,344.187 525.404,343.24 524.91,342.115C524.416,340.99 524.169,339.704 524.169,338.257C524.169,336.856 524.41,335.587 524.893,334.451C525.375,333.314 526.029,332.35 526.856,331.557C527.683,330.765 528.659,330.151 529.784,329.714C530.909,329.278 532.126,329.06 533.435,329.06C534.698,329.06 535.858,329.272 536.914,329.697C537.971,330.122 538.878,330.736 539.636,331.54C540.393,332.344 540.985,333.32 541.41,334.468C541.834,335.616 542.047,336.925 542.047,338.395ZM361.86,338.119C361.86,339.52 361.607,340.789 361.102,341.926C360.597,343.062 359.908,344.027 359.035,344.819C358.163,345.611 357.152,346.226 356.004,346.662C354.856,347.098 353.627,347.316 352.318,347.316C351.032,347.316 349.81,347.098 348.65,346.662C347.49,346.226 346.48,345.611 345.619,344.819C344.758,344.027 344.074,343.062 343.569,341.926C343.064,340.789 342.811,339.52 342.811,338.119C342.811,336.718 343.064,335.455 343.569,334.33C344.074,333.205 344.758,332.252 345.619,331.471C346.48,330.69 347.49,330.093 348.65,329.68C349.81,329.267 351.032,329.06 352.318,329.06C353.627,329.06 354.856,329.267 356.004,329.68C357.152,330.093 358.163,330.69 359.035,331.471C359.908,332.252 360.597,333.205 361.102,334.33C361.607,335.455 361.86,336.718 361.86,338.119ZM382.183,346.765L376.741,346.765L376.741,344.388L376.672,344.388C376.465,344.779 376.195,345.146 375.862,345.491C375.529,345.835 375.139,346.134 374.691,346.386C374.243,346.639 373.75,346.846 373.21,347.006C372.67,347.167 372.102,347.247 371.505,347.247C370.357,347.247 369.386,347.041 368.594,346.627C367.802,346.214 367.159,345.68 366.665,345.026C366.171,344.371 365.816,343.625 365.597,342.787C365.379,341.948 365.27,341.093 365.27,340.22L365.27,329.611L370.954,329.611L370.954,338.912C370.954,339.394 370.988,339.853 371.057,340.289C371.126,340.726 371.258,341.116 371.453,341.461C371.648,341.805 371.907,342.075 372.228,342.27C372.55,342.465 372.975,342.563 373.503,342.563C374.49,342.563 375.242,342.195 375.759,341.461C376.276,340.726 376.534,339.865 376.534,338.877L376.534,329.611L382.183,329.611L382.183,346.765ZM440.018,346.765L434.851,346.765L434.851,344.94L434.748,344.94C434.311,345.651 433.651,346.203 432.767,346.593C431.883,346.983 430.924,347.179 429.891,347.179C429.202,347.179 428.49,347.087 427.755,346.903C427.02,346.719 426.349,346.421 425.74,346.007C425.131,345.594 424.632,345.043 424.242,344.354C423.851,343.665 423.656,342.815 423.656,341.805C423.656,340.565 423.995,339.566 424.672,338.808C425.35,338.05 426.222,337.465 427.29,337.051C428.358,336.638 429.546,336.363 430.855,336.225C432.164,336.087 433.439,336.018 434.679,336.018L434.679,335.742C434.679,334.893 434.38,334.267 433.783,333.865C433.186,333.463 432.451,333.262 431.579,333.262C430.775,333.262 430,333.435 429.254,333.779C428.507,334.124 427.87,334.537 427.342,335.019L424.483,331.953C425.493,330.989 426.67,330.266 428.013,329.783C429.357,329.301 430.729,329.06 432.13,329.06C433.576,329.06 434.799,329.238 435.798,329.594C436.797,329.95 437.607,330.501 438.227,331.247C438.847,331.994 439.3,332.935 439.587,334.072C439.874,335.209 440.018,336.558 440.018,338.119L440.018,346.765ZM336.301,346.765L330.411,346.765L330.411,336.431L321.248,322.377L328.379,322.377L333.58,331.402L338.781,322.377L345.67,322.377L336.301,336.431L336.301,346.765ZM499.334,346.765L493.685,346.765L493.685,329.611L499.334,329.611L499.334,346.765ZM392.241,346.765L386.592,346.765L386.592,329.611L392.035,329.611L392.035,332.091L392.104,332.091C392.54,331.219 393.16,330.507 393.964,329.956C394.767,329.404 395.697,329.129 396.754,329.129C396.983,329.129 397.207,329.14 397.425,329.163C397.644,329.186 397.822,329.221 397.959,329.267L397.718,334.227C397.466,334.158 397.219,334.112 396.978,334.089C396.737,334.066 396.501,334.055 396.272,334.055C395.514,334.055 394.876,334.192 394.36,334.468C393.843,334.744 393.43,335.077 393.12,335.467C392.81,335.857 392.586,336.282 392.448,336.741C392.31,337.201 392.241,337.603 392.241,337.947L392.241,346.765ZM509.495,346.765L503.812,346.765L503.812,329.611L509.289,329.611L509.289,331.988L509.358,331.988C509.564,331.62 509.834,331.259 510.167,330.903C510.5,330.547 510.89,330.243 511.338,329.99C511.786,329.737 512.274,329.531 512.802,329.37C513.33,329.209 513.893,329.129 514.49,329.129C515.638,329.129 516.614,329.336 517.418,329.749C518.222,330.162 518.87,330.696 519.364,331.351C519.858,332.005 520.214,332.757 520.432,333.607C520.65,334.457 520.759,335.306 520.759,336.156L520.759,346.765L515.076,346.765L515.076,337.396C515.076,336.914 515.035,336.454 514.955,336.018C514.875,335.582 514.743,335.197 514.559,334.864C514.375,334.531 514.117,334.267 513.784,334.072C513.451,333.877 513.032,333.779 512.527,333.779C512.021,333.779 511.579,333.877 511.2,334.072C510.822,334.267 510.506,334.537 510.253,334.881C510.001,335.226 509.811,335.622 509.685,336.07C509.559,336.518 509.495,336.983 509.495,337.465L509.495,346.765ZM491.17,346.765L475.807,346.765L475.807,322.377L481.732,322.377L481.732,341.633L491.17,341.633L491.17,346.765ZM425.654,327.407L418.765,327.407L418.765,346.765L412.874,346.765L412.874,327.407L405.985,327.407L405.985,322.377L425.654,322.377L425.654,327.407ZM434.851,339.29L434.128,339.29C433.508,339.29 432.882,339.319 432.25,339.377C431.619,339.434 431.056,339.543 430.562,339.704C430.069,339.865 429.661,340.1 429.34,340.41C429.018,340.72 428.857,341.128 428.857,341.633C428.857,341.954 428.932,342.23 429.081,342.459C429.231,342.689 429.42,342.873 429.65,343.011C429.879,343.148 430.143,343.246 430.442,343.303C430.74,343.361 431.027,343.389 431.303,343.389C432.451,343.389 433.33,343.074 433.938,342.442C434.547,341.811 434.851,340.955 434.851,339.876L434.851,339.29ZM356.418,338.119C356.418,337.568 356.326,337.028 356.142,336.5C355.958,335.972 355.694,335.507 355.35,335.105C355.005,334.703 354.58,334.376 354.075,334.124C353.57,333.871 352.984,333.745 352.318,333.745C351.653,333.745 351.067,333.871 350.562,334.124C350.057,334.376 349.637,334.703 349.304,335.105C348.971,335.507 348.719,335.972 348.547,336.5C348.374,337.028 348.288,337.568 348.288,338.119C348.288,338.67 348.374,339.21 348.547,339.738C348.719,340.266 348.977,340.743 349.322,341.168C349.666,341.593 350.091,341.931 350.596,342.184C351.101,342.436 351.687,342.563 352.353,342.563C353.019,342.563 353.604,342.436 354.11,342.184C354.615,341.931 355.04,341.593 355.384,341.168C355.729,340.743 355.987,340.266 356.159,339.738C356.331,339.21 356.418,338.67 356.418,338.119ZM457.034,338.085C457.034,337.511 456.937,336.96 456.741,336.431C456.546,335.903 456.265,335.438 455.897,335.036C455.53,334.634 455.094,334.319 454.589,334.089C454.083,333.859 453.509,333.745 452.866,333.745C452.223,333.745 451.655,333.859 451.161,334.089C450.667,334.319 450.248,334.629 449.904,335.019C449.559,335.41 449.295,335.869 449.112,336.397C448.928,336.925 448.836,337.488 448.836,338.085C448.836,338.659 448.928,339.21 449.112,339.738C449.295,340.266 449.559,340.731 449.904,341.133C450.248,341.535 450.667,341.857 451.161,342.098C451.655,342.339 452.223,342.459 452.866,342.459C453.509,342.459 454.089,342.339 454.606,342.098C455.122,341.857 455.559,341.541 455.915,341.15C456.271,340.76 456.546,340.301 456.741,339.773C456.937,339.244 457.034,338.682 457.034,338.085ZM536.845,336.225C536.845,335.329 536.564,334.56 536.002,333.917C535.439,333.274 534.595,332.952 533.47,332.952C532.919,332.952 532.413,333.038 531.954,333.211C531.495,333.383 531.093,333.618 530.749,333.917C530.404,334.215 530.129,334.566 529.922,334.967C529.715,335.369 529.6,335.788 529.577,336.225L536.845,336.225ZM499.747,324.134C499.747,324.571 499.661,324.978 499.489,325.357C499.317,325.736 499.087,326.063 498.8,326.339C498.513,326.614 498.168,326.832 497.767,326.993C497.365,327.154 496.946,327.234 496.509,327.234C495.591,327.234 494.821,326.93 494.201,326.322C493.581,325.713 493.271,324.984 493.271,324.134C493.271,323.721 493.352,323.325 493.512,322.946C493.673,322.567 493.903,322.24 494.201,321.964C494.5,321.689 494.844,321.465 495.235,321.292C495.625,321.12 496.05,321.034 496.509,321.034C496.946,321.034 497.365,321.114 497.767,321.275C498.168,321.436 498.513,321.654 498.8,321.93C499.087,322.205 499.317,322.532 499.489,322.911C499.661,323.29 499.747,323.698 499.747,324.134Z" style="fill:rgb(0,34,55);fill-rule:nonzero;"/>
                </g>
                <g transform="matrix(0.540594,0,0,0.540594,72.5102,82.1307)">
                    <g transform="matrix(1.53901,0,0,1.53901,-66.4564,-142.213)">
                        <path d="M384.14,290.94C384.242,292.019 384.563,292.994 385.103,293.867C385.642,294.741 386.335,295.498 387.183,296.14C388.03,296.782 388.98,297.283 390.033,297.642C391.086,298.002 392.177,298.182 393.307,298.182C395.31,298.182 397.005,297.809 398.392,297.065C399.778,296.32 400.908,295.357 401.782,294.176L410.564,299.722C408.766,302.342 406.391,304.358 403.438,305.77C400.485,307.182 397.056,307.889 393.153,307.889C390.277,307.889 387.555,307.439 384.987,306.54C382.419,305.642 380.172,304.332 378.246,302.611C376.32,300.891 374.805,298.772 373.701,296.256C372.597,293.739 372.044,290.863 372.044,287.627C372.044,284.494 372.584,281.657 373.662,279.114C374.741,276.572 376.205,274.415 378.053,272.643C379.902,270.871 382.085,269.497 384.602,268.522C387.118,267.546 389.84,267.058 392.768,267.058C395.593,267.058 398.186,267.533 400.549,268.483C402.911,269.433 404.94,270.807 406.635,272.605C408.33,274.402 409.652,276.585 410.602,279.153C411.553,281.721 412.028,284.648 412.028,287.935C412.028,288.449 412.028,288.963 412.028,289.476C412.028,289.99 412.002,290.478 411.951,290.94L384.14,290.94ZM460.562,306.656L448.929,306.656L448.929,301.648L448.775,301.648C447.543,303.6 445.784,305.102 443.498,306.155C441.213,307.208 438.786,307.734 436.218,307.734C433.342,307.734 430.774,307.169 428.514,306.04C426.254,304.91 424.341,303.407 422.775,301.533C421.208,299.658 420.014,297.488 419.192,295.023C418.371,292.558 417.96,289.99 417.96,287.319C417.96,284.648 418.383,282.093 419.231,279.654C420.078,277.214 421.285,275.07 422.852,273.221C424.418,271.372 426.318,269.908 428.553,268.83C430.787,267.751 433.29,267.212 436.064,267.212C438.889,267.212 441.277,267.751 443.229,268.83C445.18,269.908 446.695,271.09 447.774,272.374L447.928,272.374L447.928,248.414L460.562,248.414L460.562,306.656ZM511.254,306.656L499.621,306.656L499.621,301.648L499.467,301.648C498.234,303.6 496.475,305.102 494.19,306.155C491.904,307.208 489.478,307.734 486.91,307.734C484.034,307.734 481.466,307.169 479.206,306.04C476.946,304.91 475.033,303.407 473.466,301.533C471.9,299.658 470.706,297.488 469.884,295.023C469.062,292.558 468.651,289.99 468.651,287.319C468.651,284.648 469.075,282.093 469.923,279.654C470.77,277.214 471.977,275.07 473.543,273.221C475.11,271.372 477.01,269.908 479.244,268.83C481.478,267.751 483.982,267.212 486.756,267.212C489.58,267.212 491.969,267.751 493.92,268.83C495.872,269.908 497.387,271.09 498.466,272.374L498.62,272.374L498.62,248.414L511.254,248.414L511.254,306.656ZM557.786,268.29L566.799,268.29L566.799,277.766L557.786,277.766L557.786,292.404C557.786,294.201 558.132,295.549 558.826,296.448C559.519,297.347 560.764,297.796 562.562,297.796C563.178,297.796 563.833,297.745 564.527,297.642C565.22,297.54 565.798,297.386 566.26,297.18L566.414,306.425C565.541,306.733 564.437,307.003 563.101,307.234C561.766,307.465 560.431,307.58 559.095,307.58C556.527,307.58 554.37,307.259 552.624,306.617C550.878,305.975 549.478,305.051 548.425,303.844C547.372,302.637 546.615,301.199 546.153,299.53C545.69,297.861 545.459,295.999 545.459,293.944L545.459,277.766L539.296,277.766L539.296,268.29L545.382,268.29L545.382,258.198L557.786,258.198L557.786,268.29ZM337.454,306.656L324.511,306.656L324.511,252.112L345.312,252.112C347.931,252.112 350.486,252.382 352.977,252.921C355.468,253.46 357.702,254.372 359.68,255.656C361.657,256.94 363.236,258.635 364.418,260.741C365.599,262.846 366.189,265.466 366.189,268.599C366.189,272.296 365.188,275.404 363.185,277.92C361.182,280.437 358.409,282.235 354.865,283.313L369.117,306.656L353.709,306.656L341.922,285.008L337.454,285.008L337.454,306.656ZM534.058,306.656L521.423,306.656L521.423,268.29L534.058,268.29L534.058,306.656ZM448.467,287.396C448.467,286.163 448.249,284.957 447.812,283.775C447.376,282.594 446.759,281.541 445.963,280.617C445.167,279.692 444.204,278.948 443.074,278.383C441.945,277.818 440.661,277.535 439.222,277.535C437.733,277.535 436.423,277.818 435.293,278.383C434.164,278.948 433.213,279.679 432.443,280.578C431.673,281.477 431.095,282.517 430.71,283.698C430.324,284.88 430.132,286.086 430.132,287.319C430.132,288.552 430.324,289.771 430.71,290.978C431.095,292.185 431.673,293.251 432.443,294.176C433.213,295.1 434.164,295.845 435.293,296.41C436.423,296.975 437.733,297.257 439.222,297.257C440.661,297.257 441.945,296.975 443.074,296.41C444.204,295.845 445.167,295.1 445.963,294.176C446.759,293.251 447.376,292.198 447.812,291.017C448.249,289.836 448.467,288.629 448.467,287.396ZM499.159,287.396C499.159,286.163 498.941,284.957 498.504,283.775C498.067,282.594 497.451,281.541 496.655,280.617C495.859,279.692 494.896,278.948 493.766,278.383C492.636,277.818 491.352,277.535 489.914,277.535C488.425,277.535 487.115,277.818 485.985,278.383C484.855,278.948 483.905,279.679 483.135,280.578C482.364,281.477 481.787,282.517 481.401,283.698C481.016,284.88 480.824,286.086 480.824,287.319C480.824,288.552 481.016,289.771 481.401,290.978C481.787,292.185 482.364,293.251 483.135,294.176C483.905,295.1 484.855,295.845 485.985,296.41C487.115,296.975 488.425,297.257 489.914,297.257C491.352,297.257 492.636,296.975 493.766,296.41C494.896,295.845 495.859,295.1 496.655,294.176C497.451,293.251 498.067,292.198 498.504,291.017C498.941,289.836 499.159,288.629 499.159,287.396ZM400.395,283.082C400.395,281.079 399.766,279.358 398.507,277.92C397.249,276.482 395.362,275.763 392.845,275.763C391.612,275.763 390.482,275.956 389.455,276.341C388.428,276.726 387.529,277.253 386.759,277.92C385.988,278.588 385.372,279.371 384.91,280.27C384.448,281.169 384.191,282.106 384.14,283.082L400.395,283.082ZM344.387,262.744L337.377,262.744L337.377,275.455L343.617,275.455C344.696,275.455 345.8,275.365 346.93,275.185C348.06,275.006 349.087,274.685 350.011,274.222C350.936,273.76 351.693,273.093 352.284,272.219C352.875,271.346 353.17,270.216 353.17,268.83C353.17,267.546 352.9,266.506 352.361,265.71C351.822,264.914 351.128,264.297 350.281,263.861C349.433,263.424 348.483,263.129 347.43,262.975C346.378,262.821 345.363,262.744 344.387,262.744ZM534.982,256.041C534.982,257.017 534.789,257.929 534.404,258.776C534.019,259.624 533.505,260.355 532.863,260.972C532.221,261.588 531.451,262.076 530.552,262.435C529.654,262.795 528.716,262.975 527.74,262.975C525.686,262.975 523.965,262.294 522.579,260.933C521.192,259.572 520.499,257.942 520.499,256.041C520.499,255.117 520.678,254.231 521.038,253.383C521.397,252.536 521.911,251.804 522.579,251.188C523.246,250.571 524.017,250.071 524.89,249.685C525.763,249.3 526.713,249.108 527.74,249.108C528.716,249.108 529.654,249.287 530.552,249.647C531.451,250.006 532.221,250.494 532.863,251.111C533.505,251.727 534.019,252.459 534.404,253.306C534.789,254.154 534.982,255.065 534.982,256.041Z" style="fill:rgb(0,34,55);fill-rule:nonzero;"/>
                    </g>
                    <g transform="matrix(1.53901,0,0,1.53901,-66.4564,-142.213)">
                        <path d="M703.081,278.845C702.208,277.458 700.937,276.315 699.268,275.417C697.599,274.518 695.788,274.068 693.837,274.068C691.731,274.068 689.831,274.441 688.136,275.185C686.441,275.93 684.99,276.957 683.783,278.267C682.576,279.577 681.652,281.117 681.01,282.889C680.368,284.661 680.047,286.574 680.047,288.629C680.047,290.683 680.368,292.583 681.01,294.33C681.652,296.076 682.563,297.604 683.744,298.913C684.926,300.223 686.364,301.25 688.059,301.995C689.754,302.74 691.654,303.112 693.76,303.112C696.071,303.112 698.022,302.676 699.615,301.802C701.207,300.929 702.516,299.799 703.544,298.413L707.473,301.34C705.932,303.24 704.044,304.756 701.81,305.885C699.576,307.015 696.892,307.58 693.76,307.58C690.832,307.58 688.187,307.105 685.825,306.155C683.462,305.205 681.446,303.882 679.777,302.188C678.108,300.493 676.811,298.49 675.886,296.179C674.962,293.867 674.5,291.351 674.5,288.629C674.5,285.907 674.962,283.39 675.886,281.079C676.811,278.768 678.108,276.765 679.777,275.07C681.446,273.375 683.462,272.053 685.825,271.102C688.187,270.152 690.832,269.677 693.76,269.677C696.173,269.677 698.626,270.204 701.117,271.256C703.608,272.309 705.624,273.863 707.164,275.917L703.081,278.845ZM635.903,290.015C635.955,291.813 636.314,293.508 636.982,295.1C637.649,296.692 638.574,298.079 639.755,299.26C640.936,300.441 642.323,301.379 643.915,302.072C645.507,302.765 647.228,303.112 649.077,303.112C651.799,303.112 654.149,302.483 656.126,301.225C658.103,299.966 659.606,298.515 660.633,296.872L664.562,299.953C662.405,302.676 660.029,304.627 657.436,305.808C654.842,306.99 652.056,307.58 649.077,307.58C646.406,307.58 643.928,307.105 641.643,306.155C639.357,305.205 637.393,303.882 635.749,302.188C634.106,300.493 632.809,298.49 631.859,296.179C630.909,293.867 630.433,291.351 630.433,288.629C630.433,285.907 630.896,283.39 631.82,281.079C632.745,278.768 634.029,276.765 635.672,275.07C637.316,273.375 639.242,272.053 641.45,271.102C643.658,270.152 646.047,269.677 648.615,269.677C651.439,269.677 653.93,270.152 656.087,271.102C658.245,272.053 660.042,273.336 661.48,274.954C662.918,276.572 664.01,278.46 664.754,280.617C665.499,282.774 665.871,285.085 665.871,287.55C665.871,287.91 665.871,288.295 665.871,288.706C665.871,289.117 665.846,289.553 665.794,290.015L635.903,290.015ZM593.147,306.656L575.042,306.656L575.042,252.112L593.147,252.112C596.536,252.112 599.939,252.677 603.354,253.807C606.77,254.937 609.851,256.645 612.599,258.93C615.347,261.216 617.568,264.066 619.263,267.482C620.958,270.897 621.805,274.864 621.805,279.384C621.805,283.955 620.958,287.935 619.263,291.325C617.568,294.715 615.347,297.552 612.599,299.838C609.851,302.123 606.77,303.831 603.354,304.961C599.939,306.091 596.536,306.656 593.147,306.656ZM721.031,306.656L715.793,306.656L715.793,248.414L721.031,248.414L721.031,286.857L721.263,286.857L737.903,270.602L745.453,270.602L727.272,287.088L747.302,306.656L739.598,306.656L721.263,287.704L721.031,287.704L721.031,306.656ZM591.606,257.043L580.589,257.043L580.589,301.725L591.606,301.725C595.715,301.725 599.297,301.083 602.353,299.799C605.409,298.515 607.938,296.833 609.941,294.753C611.944,292.673 613.446,290.298 614.448,287.627C615.449,284.957 615.95,282.209 615.95,279.384C615.95,276.559 615.449,273.812 614.448,271.141C613.446,268.47 611.944,266.095 609.941,264.015C607.938,261.935 605.409,260.253 602.353,258.969C599.297,257.685 595.715,257.043 591.606,257.043ZM660.556,285.855C660.402,282.466 659.31,279.654 657.282,277.42C655.253,275.185 652.364,274.068 648.615,274.068C646.868,274.068 645.251,274.389 643.761,275.031C642.272,275.673 640.962,276.546 639.832,277.651C638.702,278.755 637.804,280.013 637.136,281.426C636.468,282.838 636.083,284.315 635.98,285.855L660.556,285.855Z" style="fill:rgb(0,153,253);fill-rule:nonzero;"/>
                    </g>
                </g>
            </g>
        </g>
    </g>
</svg>
